<svg xmlns="http://www.w3.org/2000/svg" viewBox="0 0 100 100" width="100" height="100">
  <style>
    .bg{fill:#f3f1ea}
    .fg{fill:#16140d}
    @media (prefers-color-scheme: dark){
      .bg{fill:#16140d}
      .fg{fill:#f3f1ea}
    }
  </style>
  <rect class="bg" width="100" height="100" rx="22"/>
  <path class="fg" transform="translate(19.518,80.000) scale(0.042857,-0.042857)" d="M70 6Q70 12 79.5 13L172 26.5Q190 29.5 197.5 35.75Q205 42 205 54V1343.5Q205 1357.5 197.5 1364.0Q190 1370.5 172 1373.5L78.5 1387.5Q70 1389 70 1394.5Q70 1397.5 72.25 1398.75Q74.5 1400 78.5 1400H540.5Q722 1400 871.0 1347.25Q1020 1294.5 1127.75 1194.0Q1235.5 1093.5 1294.0 951.0Q1352.5 808.5 1352.5 629Q1352.5 431 1264.0 290.25Q1175.5 149.5 1017.75 74.75Q860 0 651.5 0H78.5Q74 0 72.0 1.75Q70 3.5 70 6ZM651.5 17Q780 17 880.5 84.75Q981 152.5 1039.0 294.25Q1097 436 1097 658Q1097 831.5 1059.75 966.5Q1022.5 1101.5 950.5 1194.25Q878.5 1287 775.5 1335.0Q672.5 1383 541.5 1383H448V53Q448 36 457.5 26.5Q467 17 484 17Z"/>
</svg>
